<svg width="1892" height="1273" viewBox="0 0 1892 1273" fill="none" xmlns="http://www.w3.org/2000/svg">
<g clip-path="url(#clip0)">
<path d="M297.208 559.738V1109.09L-178.543 834.413L297.208 559.738Z" stroke="#EBEBEB"/>
<path d="M299.396 1113.21C301.787 1111.83 302.607 1108.77 301.226 1106.38C299.845 1103.99 296.787 1103.17 294.396 1104.55C292.005 1105.93 291.185 1108.99 292.566 1111.38C293.947 1113.77 297.005 1114.59 299.396 1113.21Z" fill="#F2F2F2"/>
<path d="M299.553 563.484C301.944 562.103 302.764 559.045 301.383 556.654C300.002 554.263 296.944 553.443 294.553 554.824C292.162 556.205 291.342 559.263 292.723 561.654C294.104 564.045 297.162 564.865 299.553 563.484Z" fill="#F2F2F2"/>
<path d="M425.594 1.3811V257.777L203.549 129.579L425.594 1.3811Z" stroke="#EBEBEB"/>
<path d="M1668.56 673.777V417.381L1890.61 545.579L1668.56 673.777Z" stroke="#EBEBEB"/>
<path d="M1312.62 536.625L836.874 811.299V261.95L1312.62 536.625Z" stroke="#EBEBEB"/>
<path d="M834.239 265.528C836.63 266.909 839.688 266.089 841.069 263.698C842.45 261.307 841.63 258.249 839.239 256.868C836.848 255.487 833.79 256.307 832.409 258.698C831.028 261.089 831.848 264.147 834.239 265.528Z" fill="#F2F2F2"/>
<path d="M834.396 815.256C836.787 816.637 839.845 815.817 841.226 813.426C842.607 811.035 841.787 807.977 839.396 806.596C837.005 805.215 833.947 806.035 832.566 808.426C831.185 810.817 832.005 813.875 834.396 815.256Z" fill="#F2F2F2"/>
<path d="M1310.55 540.528C1312.94 541.909 1316 541.09 1317.38 538.698C1318.76 536.307 1317.94 533.249 1315.55 531.868C1313.16 530.487 1310.1 531.307 1308.72 533.698C1307.34 536.09 1308.16 539.147 1310.55 540.528Z" fill="#F2F2F2"/>
</g>
<defs>
<clipPath id="clip0">
<rect width="1892" height="1273" fill="white"/>
</clipPath>
</defs>
</svg>
