<svg width="1802" height="599" viewBox="0 0 1802 599" fill="none" xmlns="http://www.w3.org/2000/svg">
<path opacity="0.2" d="M605.842 6.58362L331.167 482.334L56.4923 6.58367L605.842 6.58362Z" stroke="white"/>
<path opacity="0.2" d="M326.148 204.75L165.5 483L4.85229 204.75H326.148Z" stroke="white"/>
<path opacity="0.2" d="M1800.26 356.5L1522.01 517.148V195.852L1800.26 356.5Z" stroke="white"/>
<path opacity="0.2" d="M1447.91 102.136L1622.25 1.48003V202.793L1447.91 102.136Z" stroke="white"/>
<path d="M56 11C58.7614 11 61 8.76142 61 6C61 3.23858 58.7614 1 56 1C53.2386 1 51 3.23858 51 6C51 8.76142 53.2386 11 56 11Z" fill="white"/>
<path d="M5 210C7.76142 210 10 207.761 10 205C10 202.239 7.76142 200 5 200C2.23858 200 0 202.239 0 205C0 207.761 2.23858 210 5 210Z" fill="white"/>
<path d="M166 488C168.761 488 171 485.761 171 483C171 480.239 168.761 478 166 478C163.239 478 161 480.239 161 483C161 485.761 163.239 488 166 488Z" fill="white"/>
<path d="M331 487C333.761 487 336 484.761 336 482C336 479.239 333.761 477 331 477C328.239 477 326 479.239 326 482C326 484.761 328.239 487 331 487Z" fill="white"/>
<path d="M606 11C608.761 11 611 8.76142 611 6C611 3.23858 608.761 1 606 1C603.239 1 601 3.23858 601 6C601 8.76142 603.239 11 606 11Z" fill="white"/>
</svg>
