<svg width="133" height="40" viewBox="0 0 133 40" fill="none" xmlns="http://www.w3.org/2000/svg">
<path d="M2.94732 34.9609L4.23631 30.6602H5.75391L3.23441 37.9609C2.84771 39.0273 2.19142 39.5605 1.26562 39.5605C1.05862 39.5605 0.830116 39.5254 0.580116 39.4551V38.3535L0.849617 38.3711C1.20902 38.3711 1.47852 38.3047 1.65822 38.1719C1.84182 38.043 1.98631 37.8242 2.09181 37.5156L2.29691 36.9707L0.0703125 30.6602H1.60551L2.94732 34.9609ZM10.3418 35.248L12.2168 30.6602H13.998V37H12.5742V32.8047L10.8281 37H9.86131L8.10941 32.7812V37H6.68552V30.6602H8.47852L10.3418 35.248ZM20.9707 37H19.5469V34.4395H17.0801V37H15.6562V30.6602H17.0801V33.3027H19.5469V30.6602H20.9707V37ZM24.0234 32.6758H25.418C25.9375 32.6758 26.3906 32.7656 26.7773 32.9453C27.1641 33.125 27.457 33.377 27.6562 33.7012C27.8594 34.0254 27.9609 34.4023 27.9609 34.832C27.9609 35.4844 27.7305 36.0078 27.2695 36.4023C26.8086 36.7969 26.1953 36.9961 25.4297 37H22.5996V30.6602H24.0234V32.6758ZM30.4395 37H29.0156V30.6602H30.4395V37ZM24.0234 33.8184V35.8633H25.4121C25.7598 35.8633 26.0332 35.7773 26.2324 35.6055C26.4355 35.4297 26.5371 35.1816 26.5371 34.8613C26.5371 34.541 26.4375 34.2891 26.2383 34.1055C26.043 33.918 25.7773 33.8223 25.4414 33.8184H24.0234ZM34.939 37.1172C34.037 37.1172 33.305 36.834 32.742 36.2676C32.184 35.6973 31.9043 34.9395 31.9043 33.9941V33.8184C31.9043 33.1855 32.025 32.6211 32.268 32.125C32.514 31.625 32.857 31.2363 33.299 30.959C33.74 30.6816 34.232 30.543 34.775 30.543C35.639 30.543 36.305 30.8184 36.773 31.3691C37.246 31.9199 37.482 32.6992 37.482 33.707V34.2812H33.34C33.383 34.8047 33.557 35.2188 33.861 35.5234C34.17 35.8281 34.557 35.9805 35.021 35.9805C35.674 35.9805 36.205 35.7168 36.615 35.1895L37.383 35.9219C37.129 36.3008 36.789 36.5957 36.363 36.8066C35.941 37.0137 35.467 37.1172 34.939 37.1172ZM34.77 31.6855C34.379 31.6855 34.062 31.8223 33.82 32.0957C33.582 32.3691 33.43 32.75 33.363 33.2383H36.076V33.1328C36.045 32.6562 35.918 32.2969 35.695 32.0547C35.473 31.8086 35.164 31.6855 34.77 31.6855ZM46.57 31.791H44.514V37H43.09V31.791H41.057V30.6602H46.57V31.791ZM49.939 37.1172C49.037 37.1172 48.305 36.834 47.742 36.2676C47.184 35.6973 46.904 34.9395 46.904 33.9941V33.8184C46.904 33.1855 47.025 32.6211 47.268 32.125C47.514 31.625 47.857 31.2363 48.299 30.959C48.74 30.6816 49.232 30.543 49.775 30.543C50.639 30.543 51.305 30.8184 51.773 31.3691C52.246 31.9199 52.482 32.6992 52.482 33.707V34.2812H48.34C48.383 34.8047 48.557 35.2188 48.861 35.5234C49.17 35.8281 49.557 35.9805 50.021 35.9805C50.674 35.9805 51.205 35.7168 51.615 35.1895L52.383 35.9219C52.129 36.3008 51.789 36.5957 51.363 36.8066C50.941 37.0137 50.467 37.1172 49.939 37.1172ZM49.77 31.6855C49.379 31.6855 49.062 31.8223 48.82 32.0957C48.582 32.3691 48.43 32.75 48.363 33.2383H51.076V33.1328C51.045 32.6562 50.918 32.2969 50.695 32.0547C50.473 31.8086 50.164 31.6855 49.77 31.6855ZM55.869 32.7461L57.076 30.6602H58.658L56.719 33.7832L58.723 37H57.152L55.887 34.832L54.627 37H53.045L55.049 33.7832L53.115 30.6602H54.686L55.869 32.7461ZM64.998 37H63.574V34.4395H61.107V37H59.684V30.6602H61.107V33.3027H63.574V30.6602H64.998V37ZM66.252 33.7715C66.252 33.1504 66.375 32.5918 66.621 32.0957C66.867 31.5957 67.213 31.2129 67.658 30.9473C68.104 30.6777 68.615 30.543 69.193 30.543C70.049 30.543 70.742 30.8184 71.273 31.3691C71.809 31.9199 72.098 32.6504 72.141 33.5605L72.146 33.8945C72.146 34.5195 72.025 35.0781 71.783 35.5703C71.545 36.0625 71.201 36.4434 70.752 36.7129C70.307 36.9824 69.791 37.1172 69.205 37.1172C68.311 37.1172 67.594 36.8203 67.055 36.2266C66.52 35.6289 66.252 34.834 66.252 33.8418V33.7715ZM67.676 33.8945C67.676 34.5469 67.811 35.0586 68.08 35.4297C68.35 35.7969 68.725 35.9805 69.205 35.9805C69.686 35.9805 70.059 35.793 70.324 35.418C70.594 35.043 70.729 34.4941 70.729 33.7715C70.729 33.1309 70.59 32.623 70.312 32.248C70.039 31.873 69.666 31.6855 69.193 31.6855C68.729 31.6855 68.359 31.8711 68.086 32.2422C67.812 32.6094 67.676 33.1602 67.676 33.8945ZM78.645 30.6602V37H77.221V31.8086H75.428L75.311 34.0176C75.236 35.0801 75.031 35.8438 74.695 36.3086C74.363 36.7695 73.854 37 73.166 37H72.727L72.721 35.8164L73.014 35.7871C73.326 35.7441 73.553 35.5547 73.693 35.2188C73.838 34.8789 73.93 34.2617 73.969 33.3672L74.086 30.6602H78.645ZM79.893 33.7715C79.893 33.1504 80.016 32.5918 80.262 32.0957C80.508 31.5957 80.854 31.2129 81.299 30.9473C81.744 30.6777 82.256 30.543 82.834 30.543C83.689 30.543 84.383 30.8184 84.914 31.3691C85.449 31.9199 85.738 32.6504 85.781 33.5605L85.787 33.8945C85.787 34.5195 85.666 35.0781 85.424 35.5703C85.186 36.0625 84.842 36.4434 84.393 36.7129C83.947 36.9824 83.432 37.1172 82.846 37.1172C81.951 37.1172 81.234 36.8203 80.695 36.2266C80.16 35.6289 79.893 34.834 79.893 33.8418V33.7715ZM81.316 33.8945C81.316 34.5469 81.451 35.0586 81.721 35.4297C81.99 35.7969 82.365 35.9805 82.846 35.9805C83.326 35.9805 83.699 35.793 83.965 35.418C84.234 35.043 84.369 34.4941 84.369 33.7715C84.369 33.1309 84.23 32.623 83.953 32.248C83.68 31.873 83.307 31.6855 82.834 31.6855C82.369 31.6855 82 31.8711 81.727 32.2422C81.453 32.6094 81.316 33.1602 81.316 33.8945ZM91.213 31.8086H88.459V37H87.041V30.6602H91.213V31.8086ZM95.977 30.6602H97.395V37H95.977V32.7695L93.492 37H92.074V30.6602H93.492V34.8906L95.977 30.6602ZM102.867 30.6602H104.285V37H102.867V32.7695L100.383 37H98.965V30.6602H100.383V34.8906L102.867 30.6602Z" fill="#788891"/>
<path d="M8.93549 14.3369C8.93549 13.6126 8.74839 13.0674 8.37399 12.7012C8.00779 12.3268 7.33639 11.9403 6.35989 11.5415C4.57759 10.866 3.2959 10.0767 2.5146 9.1733C1.7334 8.2619 1.34279 7.1877 1.34279 5.9507C1.34279 4.4533 1.8717 3.2529 2.9297 2.3496C3.9958 1.4382 5.34669 0.982399 6.98239 0.982399C8.07289 0.982399 9.04539 1.2144 9.89989 1.6782C10.7544 2.134 11.4095 2.7809 11.8652 3.6191C12.3291 4.4574 12.561 5.4095 12.561 6.4756H8.98439C8.98439 5.6455 8.8053 5.0148 8.4473 4.5835C8.0973 4.144 7.58869 3.9243 6.92139 3.9243C6.29479 3.9243 5.80649 4.1115 5.45649 4.4858C5.10659 4.8521 4.93159 5.3485 4.93159 5.9751C4.93159 6.4634 5.12699 6.9069 5.51759 7.3057C5.90819 7.6963 6.59989 8.1032 7.59279 8.5264C9.32619 9.153 10.5835 9.922 11.3647 10.8335C12.1541 11.745 12.5488 12.9046 12.5488 14.3125C12.5488 15.8587 12.0565 17.0672 11.0718 17.938C10.0871 18.8088 8.74839 19.2441 7.05569 19.2441C5.90819 19.2441 4.8625 19.0081 3.9185 18.5361C2.9744 18.0641 2.23389 17.3887 1.69679 16.5098C1.16779 15.6309 0.90329 14.5933 0.90329 13.397H4.50439C4.50439 14.4224 4.70379 15.167 5.10249 15.6309C5.50129 16.0947 6.15229 16.3267 7.05569 16.3267C8.30889 16.3267 8.93549 15.6634 8.93549 14.3369ZM18.0054 5.792L18.103 7.0127C18.8761 6.0361 19.8975 5.5479 21.167 5.5479C22.4854 5.5479 23.4172 6.1419 23.9624 7.3301C24.7192 6.1419 25.7975 5.5479 27.1973 5.5479C29.5085 5.5479 30.6925 7.147 30.7495 10.3452V19H27.2949V10.5649C27.2949 9.8 27.1891 9.2547 26.9775 8.9292C26.766 8.6037 26.4079 8.4409 25.9033 8.4409C25.2604 8.4409 24.7803 8.8356 24.4629 9.625L24.4873 10.04V19H21.0327V10.5894C21.0327 9.8325 20.931 9.2873 20.7275 8.9536C20.5241 8.6118 20.1619 8.4409 19.6411 8.4409C19.047 8.4409 18.575 8.7624 18.2251 9.4053V19H14.7705V5.792H18.0054ZM39.587 19C39.49 18.7965 39.392 18.4548 39.294 17.9746C38.676 18.821 37.838 19.2441 36.78 19.2441C35.673 19.2441 34.753 18.8779 34.021 18.1455C33.297 17.4131 32.935 16.465 32.935 15.3013C32.935 13.9178 33.374 12.8477 34.253 12.0908C35.14 11.334 36.414 10.9474 38.074 10.9312H39.124V9.8691C39.124 9.2751 39.022 8.856 38.818 8.6118C38.615 8.3677 38.318 8.2456 37.927 8.2456C37.065 8.2456 36.633 8.7502 36.633 9.7593H33.179C33.179 8.5386 33.634 7.5335 34.546 6.7441C35.465 5.9466 36.625 5.5479 38.025 5.5479C39.473 5.5479 40.592 5.9263 41.382 6.6831C42.179 7.4318 42.578 8.506 42.578 9.9058V16.1191C42.594 17.2585 42.757 18.1496 43.066 18.7925V19H39.587ZM37.549 16.5342C37.931 16.5342 38.257 16.4569 38.525 16.3022C38.794 16.1476 38.993 15.9645 39.124 15.7529V13.0063H38.293C37.708 13.0063 37.244 13.1935 36.902 13.5679C36.568 13.9422 36.401 14.4427 36.401 15.0693C36.401 16.0459 36.784 16.5342 37.549 16.5342ZM51.599 9.1245L50.452 9.0269C49.508 9.0269 48.869 9.4419 48.535 10.272V19H45.068V5.792H48.328L48.425 7.2202C48.971 6.1053 49.723 5.5479 50.684 5.5479C51.074 5.5479 51.392 5.6007 51.636 5.7065L51.599 9.1245ZM58.008 2.5449V5.792H59.778V8.3921H58.008V14.9473C58.008 15.4681 58.077 15.8262 58.215 16.0215C58.362 16.2168 58.639 16.3145 59.045 16.3145C59.379 16.3145 59.652 16.286 59.863 16.229L59.839 18.9146C59.253 19.1343 58.618 19.2441 57.935 19.2441C55.705 19.2441 54.578 17.9665 54.553 15.4111V8.3921H53.027V5.792H54.553V2.5449H58.008ZM67.615 19V1.2266H72.314C74.39 1.2266 76.042 1.8857 77.271 3.2041C78.507 4.5225 79.138 6.3291 79.163 8.624V11.5049C79.163 13.8405 78.544 15.6756 77.307 17.0103C76.078 18.3368 74.382 19 72.217 19H67.615ZM71.204 4.2173V16.0215H72.278C73.474 16.0215 74.316 15.7082 74.805 15.0815C75.293 14.4468 75.549 13.3563 75.574 11.8101V8.7217C75.574 7.0615 75.342 5.9059 74.878 5.2549C74.414 4.5957 73.625 4.2498 72.51 4.2173H71.204ZM86.914 19.2441C85.14 19.2441 83.757 18.7152 82.764 17.6572C81.771 16.5993 81.274 15.0856 81.274 13.1162V12.0664C81.274 9.9831 81.73 8.3758 82.642 7.2446C83.553 6.1134 84.859 5.5479 86.56 5.5479C88.22 5.5479 89.469 6.0809 90.308 7.147C91.146 8.2049 91.573 9.7756 91.589 11.8589V13.5557H84.717C84.766 14.5322 84.981 15.2484 85.364 15.7041C85.746 16.1517 86.336 16.3755 87.134 16.3755C88.289 16.3755 89.254 15.9808 90.027 15.1914L91.382 17.2788C90.959 17.8647 90.344 18.3408 89.539 18.707C88.733 19.0651 87.858 19.2441 86.914 19.2441ZM84.741 11.1387H88.196V10.8213C88.18 10.0319 88.049 9.4338 87.805 9.0269C87.561 8.62 87.138 8.4165 86.536 8.4165C85.933 8.4165 85.494 8.6322 85.217 9.0635C84.949 9.4948 84.79 10.1865 84.741 11.1387ZM97.705 14.1172L99.377 5.792H102.979L99.353 19H96.057L92.419 5.792H96.033L97.705 14.1172ZM108.228 19H104.761V5.792H108.228V19ZM104.602 2.374C104.602 1.8369 104.773 1.3975 105.115 1.0557C105.457 0.713899 105.912 0.542999 106.482 0.542999C107.052 0.542999 107.507 0.713899 107.849 1.0557C108.191 1.3975 108.362 1.8369 108.362 2.374C108.362 2.903 108.191 3.3424 107.849 3.6924C107.515 4.0423 107.06 4.2173 106.482 4.2173C105.904 4.2173 105.444 4.0423 105.103 3.6924C104.769 3.3424 104.602 2.903 104.602 2.374ZM115.674 16.3755C116.675 16.3755 117.183 15.7244 117.2 14.4224H120.447C120.431 15.8628 119.987 17.0265 119.116 17.9136C118.245 18.8006 117.122 19.2441 115.747 19.2441C114.046 19.2441 112.748 18.7152 111.853 17.6572C110.958 16.5993 110.502 15.0409 110.486 12.9819V11.9321C110.486 9.8569 110.925 8.2741 111.804 7.1836C112.691 6.0931 113.997 5.5479 115.723 5.5479C117.179 5.5479 118.327 5.9995 119.165 6.9028C120.003 7.798 120.431 9.0716 120.447 10.7236H117.2C117.192 9.9831 117.069 9.4134 116.833 9.0146C116.597 8.6159 116.207 8.4165 115.662 8.4165C115.059 8.4165 114.628 8.6322 114.368 9.0635C114.107 9.4867 113.969 10.3127 113.953 11.5415V12.8843C113.953 13.9585 114.006 14.7113 114.111 15.1426C114.217 15.5658 114.392 15.8791 114.636 16.0825C114.88 16.2778 115.226 16.3755 115.674 16.3755ZM127.734 19.2441C125.96 19.2441 124.577 18.7152 123.584 17.6572C122.591 16.5993 122.095 15.0856 122.095 13.1162V12.0664C122.095 9.9831 122.55 8.3758 123.462 7.2446C124.373 6.1134 125.68 5.5479 127.38 5.5479C129.041 5.5479 130.29 6.0809 131.128 7.147C131.966 8.2049 132.393 9.7756 132.41 11.8589V13.5557H125.537C125.586 14.5322 125.802 15.2484 126.184 15.7041C126.567 16.1517 127.157 16.3755 127.954 16.3755C129.11 16.3755 130.074 15.9808 130.847 15.1914L132.202 17.2788C131.779 17.8647 131.165 18.3408 130.359 18.707C129.553 19.0651 128.678 19.2441 127.734 19.2441ZM125.562 11.1387H129.016V10.8213C129 10.0319 128.87 9.4338 128.625 9.0269C128.381 8.62 127.958 8.4165 127.356 8.4165C126.754 8.4165 126.314 8.6322 126.038 9.0635C125.769 9.4948 125.61 10.1865 125.562 11.1387Z" fill="white"/>
</svg>
